#N canvas 84 71 1260 835 12;
#X obj 691 40 cnv 15 162 103 empty empty empty 20 12 0 14 #d6d9ce #404040
0;
#X obj 883 116 cnv 15 338 648 empty empty empty 20 12 0 14 #a6d2d7
#404040 0;
#X obj 911 472 cnv 15 96 150 empty empty empty 20 12 0 14 #d6d9ce #404040
0;
#X obj 1062 263 cnv 15 143 186 empty empty empty 20 12 0 14 #d6d9ce
#404040 0;
#X obj 1012 716 cnv 15 89 36 empty empty empty 20 12 0 14 #d6d9ce #404040
0;
#X obj 893 193 cnv 15 89 36 empty empty empty 20 12 0 14 #d6d9ce #404040
0;
#X obj 890 121 cnv 15 89 36 empty empty empty 20 12 0 14 #d6d9ce #404040
0;
#X obj 887 683 cnv 15 324 24 empty empty empty 20 12 0 14 #0e131f #404040
0;
#X obj 889 685 cnv 15 320 20 empty empty empty 20 12 0 14 #efe1b8 #404040
0;
#X obj 887 623 cnv 15 324 24 empty empty empty 20 12 0 14 #0e131f #404040
0;
#X obj 889 625 cnv 15 320 20 empty empty empty 20 12 0 14 #efe1b8 #404040
0;
#X obj 887 447 cnv 15 324 24 empty empty empty 20 12 0 14 #0e131f #404040
0;
#X obj 889 449 cnv 15 320 20 empty empty empty 20 12 0 14 #efe1b8 #404040
0;
#X obj 889 239 cnv 15 324 24 empty empty empty 20 12 0 14 #0e131f #404040
0;
#X obj 891 241 cnv 15 320 20 empty empty empty 20 12 0 14 #efe1b8 #404040
0;
#X obj 888 164 cnv 15 324 24 empty empty empty 20 12 0 14 #0e131f #404040
0;
#X obj 890 166 cnv 15 320 20 empty empty empty 20 12 0 14 #efe1b8 #404040
0;
#X obj 167 51 cnv 15 149 232 empty empty empty 20 12 0 14 #87b6a7 #404040
0;
#X obj 290 322 cnv 15 364 466 empty empty empty 20 12 0 14 #efe1b8
#404040 0;
#X obj 21 50 cnv 15 133 190 empty empty empty 20 12 0 14 #d6d9ce #404040
0;
#X obj 21 316 cnv 15 178 442 empty empty empty 20 12 0 14 #a5d2d7 #404040
0;
#N canvas 67 590 757 361 moveThePlucks1 0;
#X obj 167 72 delay 5;
#X obj 167 101 t b b b b b b b, f 24;
#X obj 57 170 random;
#X obj 127 170 random;
#X obj 197 170 random;
#X obj 267 170 random;
#X obj 347 170 random;
#X obj 417 170 random;
#X obj 487 170 random;
#X obj 198 16 inlet;
#X obj 57 227 s mtp11;
#X obj 127 227 s mtp21;
#X obj 197 227 s mtp31;
#X obj 267 227 s mtp41;
#X obj 347 227 s mtp51;
#X obj 417 227 s mtp61;
#X obj 487 227 s mtp71;
#X obj 56 204 +;
#X obj 126 201 +;
#X obj 196 202 +;
#X obj 266 199 +;
#X obj 346 202 +;
#X obj 416 199 +;
#X obj 486 199 +;
#X obj 217 43 t b f f f;
#X obj 336 39 * 2;
#X obj 386 79 * 3;
#X connect 0 0 1 0;
#X connect 1 0 2 0;
#X connect 1 1 3 0;
#X connect 1 2 4 0;
#X connect 1 3 5 0;
#X connect 1 4 6 0;
#X connect 1 5 7 0;
#X connect 1 6 8 0;
#X connect 2 0 17 0;
#X connect 3 0 18 0;
#X connect 4 0 19 0;
#X connect 5 0 20 0;
#X connect 6 0 21 0;
#X connect 7 0 22 0;
#X connect 8 0 23 0;
#X connect 9 0 24 0;
#X connect 17 0 10 0;
#X connect 18 0 11 0;
#X connect 19 0 12 0;
#X connect 20 0 13 0;
#X connect 21 0 14 0;
#X connect 22 0 15 0;
#X connect 23 0 16 0;
#X connect 24 0 0 0;
#X connect 24 1 8 1;
#X connect 24 1 7 1;
#X connect 24 1 6 1;
#X connect 24 1 5 1;
#X connect 24 1 4 1;
#X connect 24 1 3 1;
#X connect 24 1 2 1;
#X connect 24 2 25 0;
#X connect 24 3 26 0;
#X connect 25 0 23 1;
#X connect 25 0 22 1;
#X connect 25 0 20 1;
#X connect 25 0 18 1;
#X connect 26 0 21 1;
#X connect 26 0 19 1;
#X connect 26 0 17 1;
#X restore 470 689 pd moveThePlucks1;
#N canvas 249 420 832 388 upThePlucks1 0;
#X obj 261 144 t b b b b b b b, f 24;
#X obj 261 110 inlet;
#X obj 141 213 random 3;
#X obj 211 213 random 3;
#X obj 281 213 random 3;
#X obj 351 213 random 3;
#X obj 421 213 random 3;
#X obj 491 213 random 3;
#X obj 561 213 random 3;
#X obj 141 240 s utp11;
#X obj 211 240 s utp21;
#X obj 281 240 s utp31;
#X obj 351 240 s utp41;
#X obj 421 240 s utp51;
#X obj 491 240 s utp61;
#X obj 561 240 s utp71;
#X connect 0 0 2 0;
#X connect 0 1 3 0;
#X connect 0 2 4 0;
#X connect 0 3 5 0;
#X connect 0 4 6 0;
#X connect 0 5 7 0;
#X connect 0 6 8 0;
#X connect 1 0 0 0;
#X connect 2 0 9 0;
#X connect 3 0 10 0;
#X connect 4 0 11 0;
#X connect 5 0 12 0;
#X connect 6 0 13 0;
#X connect 7 0 14 0;
#X connect 8 0 15 0;
#X restore 336 521 pd upThePlucks1;
#N canvas 249 420 832 388 upTheWaves1 0;
#X obj 261 110 inlet;
#X obj 141 213 random 3;
#X obj 211 213 random 3;
#X obj 281 213 random 3;
#X obj 351 213 random 3;
#X obj 261 144 t b b b b, f 24;
#X obj 141 240 s utw11;
#X obj 211 240 s utw21;
#X obj 281 240 s utw31;
#X obj 351 240 s utw41;
#X connect 0 0 5 0;
#X connect 1 0 6 0;
#X connect 2 0 7 0;
#X connect 3 0 8 0;
#X connect 4 0 9 0;
#X connect 5 0 1 0;
#X connect 5 1 2 0;
#X connect 5 2 3 0;
#X connect 5 3 4 0;
#X restore 368 493 pd upTheWaves1;
#X obj 336 466 t b b;
#X obj 29 519 *~ 0.7;
#X obj 29 427 f;
#X obj 29 491 delread~ delBuff2 500;
#X text 36 725 Delay buffer in/out;
#N canvas 612 356 1046 327 harpVoices 0;
#X obj 271 87 mtof;
#X obj 271 115 harp~;
#X obj 271 59 t f b;
#X obj 551 97 mtof;
#X obj 551 69 t f b;
#X obj 111 147 mtof;
#X obj 111 175 harp~;
#X obj 111 119 t f b;
#X obj 391 157 mtof;
#X obj 391 129 t f b;
#X obj 191 117 mtof;
#X obj 191 145 harp~;
#X obj 191 89 t f b;
#X obj 471 127 mtof;
#X obj 471 99 t f b;
#X obj 31 177 mtof;
#X obj 31 205 harp~;
#X obj 31 149 t f b;
#X msg 70 178 10;
#X msg 230 118 10;
#X msg 150 148 10;
#X msg 310 88 10;
#X msg 590 98 10;
#X msg 430 158 10;
#X msg 510 128 10;
#X obj 31 123 r wave;
#X obj 111 93 r wave4;
#X obj 191 63 r wave2;
#X obj 271 33 r wave6;
#X obj 391 103 r wave3;
#X obj 471 73 r wave1;
#X obj 551 43 r wave5;
#X obj 31 231 throw~ output11;
#X obj 111 201 throw~ output11;
#X obj 191 171 throw~ output11;
#X obj 271 141 throw~ output11;
#X obj 391 211 throw~ output11;
#X obj 471 181 throw~ output11;
#X obj 551 151 throw~ output11;
#X obj 391 185 harp~;
#X obj 471 155 harp~;
#X obj 551 125 harp~;
#X connect 0 0 1 0;
#X connect 1 0 35 0;
#X connect 2 0 0 0;
#X connect 2 1 21 0;
#X connect 3 0 41 0;
#X connect 4 0 3 0;
#X connect 4 1 22 0;
#X connect 5 0 6 0;
#X connect 6 0 33 0;
#X connect 7 0 5 0;
#X connect 7 1 20 0;
#X connect 8 0 39 0;
#X connect 9 0 8 0;
#X connect 9 1 23 0;
#X connect 10 0 11 0;
#X connect 11 0 34 0;
#X connect 12 0 10 0;
#X connect 12 1 19 0;
#X connect 13 0 40 0;
#X connect 14 0 13 0;
#X connect 14 1 24 0;
#X connect 15 0 16 0;
#X connect 16 0 32 0;
#X connect 17 0 15 0;
#X connect 17 1 18 0;
#X connect 18 0 16 1;
#X connect 19 0 11 1;
#X connect 20 0 6 1;
#X connect 21 0 1 1;
#X connect 22 0 41 1;
#X connect 23 0 39 1;
#X connect 24 0 40 1;
#X connect 25 0 17 0;
#X connect 26 0 7 0;
#X connect 27 0 12 0;
#X connect 28 0 2 0;
#X connect 29 0 9 0;
#X connect 30 0 14 0;
#X connect 31 0 4 0;
#X connect 39 0 36 0;
#X connect 40 0 37 0;
#X connect 41 0 38 0;
#X restore 701 76 pd harpVoices;
#X obj 32 667 hip~ 500;
#X obj 304 329 tgl 15 0 empty startItAll empty 17 7 0 10 #fcfcfc #000000
#000000 1 1;
#X obj 363 393 s tog1;
#X obj 32 696 delwrite~ delBuff2 900;
#X obj 342 66 metro 3;
#X obj 342 154 snapshot~;
#X obj 342 209 * 0.075;
#X obj 342 238 s LFO;
#X text 424 123 4hz LFO;
#X obj 342 37 r tog1;
#N canvas 475 473 1094 471 AllTheWavesSounds 0;
#X obj 159 45 r mtp11;
#X obj 152 168 r mtp21;
#X obj 332 52 r mtp31;
#X obj 64 41 r utp11;
#X obj 64 165 r utp21;
#X obj 244 45 r utp31;
#X obj 64 98 s wave;
#X obj 64 226 s wave1;
#X obj 244 106 s wave2;
#N canvas 109 628 516 381 aPluckRoot1 0;
#X obj 315 181 metro 10000;
#X floatatom 94 172 5 0 0 0 - - -, f 5;
#X floatatom 114 71 5 0 0 0 - - -, f 5;
#X obj 315 121 r tog;
#X obj 315 150 t;
#X obj 389 150 inlet;
#X text 374 123 REPETITION TIME;
#X obj 94 109 f;
#X obj 94 138 +;
#X obj 213 28 inlet;
#X text 251 28 OCTAVE SEL;
#X obj 213 117 sel 0 1 2;
#X msg 198 152 0;
#X msg 226 183 12;
#X msg 253 157 24;
#X obj 213 57 t b f;
#X obj 64 210 f;
#X obj 64 239 outlet;
#X obj 315 210 bng 15 250 50 0 empty empty empty 17 7 0 10 #fcfcfc
#000000 #000000;
#X obj 114 45 r first2;
#X connect 0 0 18 0;
#X connect 1 0 16 1;
#X connect 2 0 7 1;
#X connect 3 0 4 0;
#X connect 4 0 0 0;
#X connect 5 0 0 1;
#X connect 7 0 8 0;
#X connect 8 0 1 0;
#X connect 9 0 15 0;
#X connect 11 0 12 0;
#X connect 11 1 13 0;
#X connect 11 2 14 0;
#X connect 12 0 8 1;
#X connect 13 0 8 1;
#X connect 14 0 8 1;
#X connect 15 0 7 0;
#X connect 15 1 11 0;
#X connect 16 0 17 0;
#X connect 18 0 16 0;
#X connect 19 0 2 0;
#X restore 64 69 pd aPluckRoot1;
#N canvas 812 259 740 511 aPluck2nd1 0;
#X obj 325 181 metro 10000;
#X obj 325 210 bng 15 250 50 0 empty empty empty 17 7 0 10 #fcfcfc
#000000 #000000;
#X floatatom 114 202 5 0 0 0 - - -, f 5;
#X floatatom 124 71 5 0 0 0 - - -, f 5;
#X obj 320 110 t;
#X obj 399 149 inlet;
#X text 404 122 REPETITION TIME;
#X obj 114 119 f;
#X obj 114 148 +;
#X obj 223 28 inlet;
#X text 261 28 OCTAVE SEL;
#X obj 223 117 sel 0 1 2;
#X msg 208 152 0;
#X msg 236 183 12;
#X obj 223 57 t b f;
#X obj 320 139 delay 500;
#X obj 104 240 f;
#X obj 104 269 outlet;
#X obj 320 81 r tog1;
#X obj 124 45 r second2;
#X msg 263 157 -12;
#X connect 0 0 1 0;
#X connect 1 0 16 0;
#X connect 2 0 16 1;
#X connect 3 0 7 1;
#X connect 4 0 15 0;
#X connect 5 0 0 1;
#X connect 7 0 8 0;
#X connect 8 0 2 0;
#X connect 9 0 14 0;
#X connect 11 0 12 0;
#X connect 11 1 13 0;
#X connect 11 2 20 0;
#X connect 12 0 8 1;
#X connect 13 0 8 1;
#X connect 14 0 7 0;
#X connect 14 1 11 0;
#X connect 15 0 0 0;
#X connect 16 0 17 0;
#X connect 18 0 4 0;
#X connect 19 0 3 0;
#X connect 20 0 8 1;
#X restore 64 197 pd aPluck2nd1;
#N canvas 812 261 600 284 aPluck3rd1 0;
#X obj 335 181 metro 10000;
#X obj 335 210 bng 15 250 50 0 empty empty empty 17 7 0 10 #fcfcfc
#000000 #000000;
#X floatatom 114 182 5 0 0 0 - - -, f 5;
#X floatatom 134 71 5 0 0 0 - - -, f 5;
#X obj 330 120 t;
#X obj 414 149 inlet;
#X text 409 122 REPETITION TIME;
#X obj 114 109 f;
#X obj 114 138 +;
#X obj 233 28 inlet;
#X text 271 28 OCTAVE SEL;
#X obj 233 117 sel 0 1 2;
#X msg 218 152 0;
#X msg 246 183 12;
#X msg 273 157 24;
#X obj 233 57 t b f;
#X obj 330 149 delay 1000;
#X obj 94 220 f;
#X obj 94 249 outlet;
#X obj 330 91 r tog1;
#X obj 134 45 r third2;
#X connect 0 0 1 0;
#X connect 1 0 17 0;
#X connect 2 0 17 1;
#X connect 3 0 7 1;
#X connect 4 0 16 0;
#X connect 5 0 0 1;
#X connect 7 0 8 0;
#X connect 8 0 2 0;
#X connect 9 0 15 0;
#X connect 11 0 12 0;
#X connect 11 1 13 0;
#X connect 11 2 14 0;
#X connect 12 0 8 1;
#X connect 13 0 8 1;
#X connect 14 0 8 1;
#X connect 15 0 7 0;
#X connect 15 1 11 0;
#X connect 16 0 0 0;
#X connect 17 0 18 0;
#X connect 19 0 4 0;
#X connect 20 0 3 0;
#X restore 244 77 pd aPluck3rd1;
#X obj 504 51 r mtp51;
#X obj 324 177 r mtp61;
#X obj 674 49 r mtp71;
#X obj 416 46 r utp51;
#X obj 236 175 r utp61;
#X obj 586 44 r utp71;
#X obj 416 104 s wave4;
#X obj 236 234 s wave5;
#X obj 586 104 s wave6;
#N canvas 812 261 567 298 aPluck5th1 0;
#X obj 335 181 metro 10000;
#X obj 335 210 bng 15 250 50 0 empty empty empty 17 7 0 10 #fcfcfc
#000000 #000000;
#X floatatom 114 182 5 0 0 0 - - -, f 5;
#X floatatom 134 71 5 0 0 0 - - -, f 5;
#X obj 330 110 t;
#X obj 424 129 inlet;
#X text 399 102 REPETITION TIME;
#X obj 114 109 f;
#X obj 114 138 +;
#X obj 233 28 inlet;
#X text 271 28 OCTAVE SEL;
#X obj 233 117 sel 0 1 2;
#X msg 218 152 0;
#X msg 246 183 12;
#X msg 273 157 24;
#X obj 233 57 t b f;
#X obj 330 139 delay 2000;
#X obj 94 220 f;
#X obj 94 249 outlet;
#X obj 330 81 r tog1;
#X obj 134 45 r fifth2;
#X connect 0 0 1 0;
#X connect 1 0 17 0;
#X connect 2 0 17 1;
#X connect 3 0 7 1;
#X connect 4 0 16 0;
#X connect 5 0 0 1;
#X connect 7 0 8 0;
#X connect 8 0 2 0;
#X connect 9 0 15 0;
#X connect 11 0 12 0;
#X connect 11 1 13 0;
#X connect 11 2 14 0;
#X connect 12 0 8 1;
#X connect 13 0 8 1;
#X connect 14 0 8 1;
#X connect 15 0 7 0;
#X connect 15 1 11 0;
#X connect 16 0 0 0;
#X connect 17 0 18 0;
#X connect 19 0 4 0;
#X connect 20 0 3 0;
#X restore 416 75 pd aPluck5th1;
#N canvas 812 261 625 324 aPluck6th1 0;
#X obj 355 181 metro 10000;
#X obj 355 210 bng 15 250 50 0 empty empty empty 17 7 0 10 #fcfcfc
#000000 #000000;
#X floatatom 134 182 5 0 0 0 - - -, f 5;
#X floatatom 154 71 5 0 0 0 - - -, f 5;
#X obj 350 120 t;
#X obj 444 149 inlet;
#X text 439 122 REPETITION TIME;
#X obj 134 119 f;
#X obj 134 148 +;
#X obj 253 28 inlet;
#X text 291 28 OCTAVE SEL;
#X obj 253 117 sel 0 1 2;
#X msg 238 152 0;
#X msg 266 183 12;
#X obj 253 57 t b f;
#X obj 350 149 delay 2500;
#X obj 104 220 f;
#X obj 104 249 outlet;
#X obj 350 91 r tog1;
#X obj 154 45 r sixth2;
#X msg 293 157 -12;
#X connect 0 0 1 0;
#X connect 1 0 16 0;
#X connect 2 0 16 1;
#X connect 3 0 7 1;
#X connect 4 0 15 0;
#X connect 5 0 0 1;
#X connect 7 0 8 0;
#X connect 8 0 2 0;
#X connect 9 0 14 0;
#X connect 11 0 12 0;
#X connect 11 1 13 0;
#X connect 11 2 20 0;
#X connect 12 0 8 1;
#X connect 13 0 8 1;
#X connect 14 0 7 0;
#X connect 14 1 11 0;
#X connect 15 0 0 0;
#X connect 16 0 17 0;
#X connect 18 0 4 0;
#X connect 19 0 3 0;
#X connect 20 0 8 1;
#X restore 236 205 pd aPluck6th1;
#N canvas 553 507 670 336 aPluck7th1 0;
#X obj 345 181 metro 10000;
#X obj 345 210 bng 15 250 50 0 empty empty empty 17 7 0 10 #fcfcfc
#000000 #000000;
#X floatatom 114 172 5 0 0 0 - - -, f 5;
#X floatatom 144 71 5 0 0 0 - - -, f 5;
#X obj 340 120 t;
#X obj 434 139 inlet;
#X text 439 112 REPETITION TIME;
#X obj 114 109 f;
#X obj 114 138 +;
#X obj 243 28 inlet;
#X text 281 28 OCTAVE SEL;
#X obj 243 117 sel 0 1 2;
#X msg 228 152 0;
#X msg 256 183 12;
#X msg 283 157 24;
#X obj 243 57 t b f;
#X obj 340 149 delay 3000;
#X obj 94 210 f;
#X obj 94 239 outlet;
#X obj 340 91 r tog1;
#X obj 144 45 r seventh2;
#X connect 0 0 1 0;
#X connect 1 0 17 0;
#X connect 2 0 17 1;
#X connect 3 0 7 1;
#X connect 4 0 16 0;
#X connect 5 0 0 1;
#X connect 7 0 8 0;
#X connect 8 0 2 0;
#X connect 9 0 15 0;
#X connect 11 0 12 0;
#X connect 11 1 13 0;
#X connect 11 2 14 0;
#X connect 12 0 8 1;
#X connect 13 0 8 1;
#X connect 14 0 8 1;
#X connect 15 0 7 0;
#X connect 15 1 11 0;
#X connect 16 0 0 0;
#X connect 17 0 18 0;
#X connect 19 0 4 0;
#X connect 20 0 3 0;
#X restore 586 75 pd aPluck7th1;
#X obj 848 45 r utw11;
#X obj 848 105 r utw21;
#X obj 848 165 r utw31;
#X obj 936 44 r mtw11;
#X obj 929 104 r mtw21;
#X obj 929 164 r mtw31;
#N canvas 554 153 756 482 aWaveRoot1 0;
#X obj 345 181 metro 10000;
#X obj 345 210 bng 15 250 50 0 empty empty empty 17 7 0 10 #fcfcfc
#000000 #000000;
#X obj 126 409 *~;
#X obj 66 210 mtof;
#X obj 345 301 line 0 3;
#X msg 465 260 0 700;
#X obj 465 231 delay 2000;
#X obj 36 130 r LFO;
#X obj 66 185 +;
#X floatatom 104 61 5 0 0 0 - - -, f 5;
#X msg 345 260 0.04 300;
#X obj 340 150 t;
#X obj 419 149 inlet;
#X text 404 122 REPETITION TIME;
#X obj 84 99 f;
#X obj 84 128 +;
#X obj 183 28 inlet;
#X text 221 28 OCTAVE SEL;
#X obj 183 117 sel 0 1 2;
#X msg 168 152 0;
#X floatatom 84 157 5 0 0 0 - - -, f 5;
#X msg 196 183 12;
#X obj 183 57 t b f;
#X obj 340 121 r tog1;
#X obj 104 35 r first3;
#X obj 66 283 osc~;
#X msg 223 157 -12;
#X obj 126 438 throw~ output10;
#X obj 532 197 r decay1;
#X obj 66 312 *~;
#X obj 66 341 +~;
#X obj 66 239 t f f;
#X obj 186 312 *~;
#X obj 186 283 phasor~;
#X obj 6 459;
#X obj 120 294 r oVol;
#X obj 269 310 r pVol;
#X obj 126 382 lop~ 8000;
#X connect 0 0 1 0;
#X connect 1 0 10 0;
#X connect 1 0 6 0;
#X connect 2 0 27 0;
#X connect 3 0 31 0;
#X connect 4 0 2 1;
#X connect 5 0 4 0;
#X connect 6 0 5 0;
#X connect 7 0 8 0;
#X connect 8 0 3 0;
#X connect 9 0 14 1;
#X connect 10 0 4 0;
#X connect 11 0 0 0;
#X connect 12 0 0 1;
#X connect 14 0 15 0;
#X connect 15 0 20 0;
#X connect 16 0 22 0;
#X connect 18 0 19 0;
#X connect 18 1 21 0;
#X connect 18 2 26 0;
#X connect 19 0 15 1;
#X connect 20 0 8 1;
#X connect 21 0 15 1;
#X connect 22 0 14 0;
#X connect 22 1 18 0;
#X connect 23 0 11 0;
#X connect 24 0 9 0;
#X connect 25 0 29 0;
#X connect 26 0 15 1;
#X connect 28 0 6 1;
#X connect 29 0 30 0;
#X connect 30 0 37 0;
#X connect 31 0 25 0;
#X connect 31 1 33 0;
#X connect 32 0 30 1;
#X connect 33 0 32 0;
#X connect 35 0 29 1;
#X connect 36 0 32 1;
#X connect 37 0 2 0;
#X restore 848 74 pd aWaveRoot1;
#N canvas 812 267 844 513 aWave3rd1 0;
#X obj 326 181 metro 10000;
#X obj 325 210 bng 15 250 50 0 empty empty empty 17 7 0 10 #fcfcfc
#000000 #000000;
#X obj 126 410 *~;
#X obj 66 211 mtof;
#X obj 326 301 line 0 3;
#X msg 406 260 0 700;
#X obj 406 231 delay 2000;
#X obj 36 130 r LFO;
#X obj 66 185 +;
#X floatatom 114 51 5 0 0 0 - - -, f 5;
#X msg 326 260 0.04 300;
#X obj 321 120 t;
#X obj 395 79 inlet;
#X text 390 52 REPETITION TIME;
#X obj 84 99 f;
#X obj 84 128 +;
#X obj 183 28 inlet;
#X text 221 28 OCTAVE SEL;
#X obj 183 117 sel 0 1 2;
#X msg 168 152 0;
#X floatatom 84 157 5 0 0 0 - - -, f 5;
#X msg 196 183 12;
#X obj 183 57 t b f;
#X obj 321 149 delay 1000;
#X obj 321 91 r tog1;
#X obj 114 25 r third3;
#X msg 223 157 -12;
#X obj 126 439 throw~ output10;
#X obj 479 193 r decay1;
#X obj 68 276 osc~;
#X obj 68 305 *~;
#X obj 68 334 +~;
#X obj 188 305 *~;
#X obj 188 276 phasor~;
#X obj 122 287 r oVol;
#X obj 241 303 r pVol;
#X obj 66 240 t f f;
#X obj 126 383 lop~ 6000;
#X connect 0 0 1 0;
#X connect 1 0 10 0;
#X connect 1 0 6 0;
#X connect 2 0 27 0;
#X connect 3 0 36 0;
#X connect 4 0 2 1;
#X connect 5 0 4 0;
#X connect 6 0 5 0;
#X connect 7 0 8 0;
#X connect 8 0 3 0;
#X connect 9 0 14 1;
#X connect 10 0 4 0;
#X connect 11 0 23 0;
#X connect 12 0 0 1;
#X connect 14 0 15 0;
#X connect 15 0 20 0;
#X connect 16 0 22 0;
#X connect 18 0 19 0;
#X connect 18 1 21 0;
#X connect 18 2 26 0;
#X connect 19 0 15 1;
#X connect 20 0 8 1;
#X connect 21 0 15 1;
#X connect 22 0 14 0;
#X connect 22 1 18 0;
#X connect 23 0 0 0;
#X connect 24 0 11 0;
#X connect 25 0 9 0;
#X connect 26 0 15 1;
#X connect 28 0 6 1;
#X connect 29 0 30 0;
#X connect 30 0 31 0;
#X connect 31 0 37 0;
#X connect 32 0 31 1;
#X connect 33 0 32 0;
#X connect 34 0 30 1;
#X connect 35 0 32 1;
#X connect 36 0 29 0;
#X connect 36 1 33 0;
#X connect 37 0 2 0;
#X restore 848 134 pd aWave3rd1;
#N canvas 812 275 731 488 aWave5th1 0;
#X obj 355 181 metro 10000;
#X obj 355 210 bng 15 250 50 0 empty empty empty 17 7 0 10 #fcfcfc
#000000 #000000;
#X obj 66 402 *~;
#X obj 66 220 mtof;
#X obj 355 301 line 0 3;
#X msg 435 260 0 700;
#X obj 435 231 delay 2000;
#X obj 36 130 r LFO;
#X obj 66 195 +;
#X floatatom 114 51 5 0 0 0 - - -, f 5;
#X msg 355 260 0.04 300;
#X obj 350 110 t;
#X obj 424 79 inlet;
#X text 399 52 REPETITION TIME;
#X obj 84 99 f;
#X obj 84 128 +;
#X obj 183 28 inlet;
#X text 231 28 OCTAVE SEL;
#X obj 183 117 sel 0 1 2;
#X msg 168 152 0;
#X floatatom 84 157 5 0 0 0 - - -, f 5;
#X msg 196 183 12;
#X obj 183 57 t b f;
#X obj 350 139 delay 2000;
#X obj 350 81 r tog1;
#X obj 114 25 r fifth3;
#X msg 223 157 -12;
#X obj 66 431 throw~ output10;
#X obj 495 188 r decay1;
#X obj 30 286 osc~;
#X obj 30 315 *~;
#X obj 30 344 +~;
#X obj 150 315 *~;
#X obj 150 286 phasor~;
#X obj 84 297 r oVol;
#X obj 203 313 r pVol;
#X obj 28 250 t f f;
#X obj 66 355 lop~ 6000;
#X connect 0 0 1 0;
#X connect 1 0 10 0;
#X connect 1 0 6 0;
#X connect 2 0 27 0;
#X connect 3 0 36 0;
#X connect 4 0 2 1;
#X connect 5 0 4 0;
#X connect 6 0 5 0;
#X connect 7 0 8 0;
#X connect 8 0 3 0;
#X connect 9 0 14 1;
#X connect 10 0 4 0;
#X connect 11 0 23 0;
#X connect 12 0 0 1;
#X connect 14 0 15 0;
#X connect 15 0 20 0;
#X connect 16 0 22 0;
#X connect 18 0 19 0;
#X connect 18 1 21 0;
#X connect 18 2 26 0;
#X connect 19 0 15 1;
#X connect 20 0 8 1;
#X connect 21 0 15 1;
#X connect 22 0 14 0;
#X connect 22 1 18 0;
#X connect 23 0 0 0;
#X connect 24 0 11 0;
#X connect 25 0 9 0;
#X connect 26 0 15 1;
#X connect 28 0 6 1;
#X connect 29 0 30 0;
#X connect 30 0 31 0;
#X connect 31 0 37 0;
#X connect 32 0 31 1;
#X connect 33 0 32 0;
#X connect 34 0 30 1;
#X connect 35 0 32 1;
#X connect 36 0 29 0;
#X connect 36 1 33 0;
#X connect 37 0 2 0;
#X restore 848 194 pd aWave5th1;
#X connect 0 0 9 1;
#X connect 1 0 10 1;
#X connect 2 0 11 1;
#X connect 3 0 9 0;
#X connect 4 0 10 0;
#X connect 5 0 11 0;
#X connect 9 0 6 0;
#X connect 10 0 7 0;
#X connect 11 0 8 0;
#X connect 12 0 21 1;
#X connect 13 0 22 1;
#X connect 14 0 23 1;
#X connect 15 0 21 0;
#X connect 16 0 22 0;
#X connect 17 0 23 0;
#X connect 21 0 18 0;
#X connect 22 0 19 0;
#X connect 23 0 20 0;
#X connect 24 0 30 0;
#X connect 25 0 31 0;
#X connect 26 0 32 0;
#X connect 27 0 30 1;
#X connect 28 0 31 1;
#X connect 29 0 32 1;
#X restore 700 47 pd AllTheWavesSounds;
#X obj 470 525 metro 20000;
#X obj 440 349 tgl 15 0 empty randomizeItAll empty 17 7 0 10 #fcfcfc
#000000 #000000 1 1;
#X obj 470 554 t b b;
#X obj 500 402 metro;
#X obj 500 457 + 500;
#X obj 381 434 metro 20000;
#X obj 440 373 t f f f, f 9;
#X obj 336 445 bng 15 250 50 0 empty empty empty 17 7 0 10 #fcfcfc
#000000 #000000;
#X obj 500 428 random 30000;
#N canvas 468 419 666 483 moveTheWaves1 0;
#X obj 184 102 delay 5;
#X obj 74 200 random;
#X obj 134 200 random;
#X obj 194 200 random;
#X obj 215 46 inlet;
#X obj 184 131 t b b b b, f 24;
#X obj 74 258 s mtw11;
#X obj 134 258 s mtw21;
#X obj 194 258 s mtw31;
#X obj 72 225 +;
#X obj 132 229 +;
#X obj 192 229 +;
#X obj 234 73 t b f f f;
#X obj 327 93 * 3;
#X obj 287 103 * 2;
#X connect 0 0 5 0;
#X connect 1 0 9 0;
#X connect 2 0 10 0;
#X connect 3 0 11 0;
#X connect 4 0 12 0;
#X connect 5 0 1 0;
#X connect 5 1 2 0;
#X connect 5 2 3 0;
#X connect 9 0 6 0;
#X connect 10 0 7 0;
#X connect 11 0 8 0;
#X connect 12 0 0 0;
#X connect 12 1 3 1;
#X connect 12 1 2 1;
#X connect 12 1 1 1;
#X connect 12 2 14 0;
#X connect 12 3 13 0;
#X connect 13 0 10 1;
#X connect 14 0 11 1;
#X connect 14 0 9 1;
#X restore 352 758 pd moveTheWaves1;
#X obj 352 568 loadbang;
#X obj 470 583 delay 1000;
#X obj 368 123 osc~ 12;
#X obj 67 377 / 100;
#X obj 67 404 - 15;
#X obj 67 433 * -1;
#X obj 67 462 s LFOvalue;
#X obj 414 91 r LFOvalue;
#X text 66 328 DELAY TIME;
#X obj 352 728 + 1000;
#X obj 352 699 random 15000;
#X obj 470 633 random 15000;
#X obj 608 419 vsl 15 128 100 15000 0 0 empty moveThePlucks empty 0
-9 0 10 #fcfcfc #000000 #000000 5881 1;
#X obj 608 561 t b f;
#X obj 308 519 vsl 15 128 100 15000 0 0 empty moveTheWaves empty 0
-9 0 10 #fcfcfc #000000 #000000 6734 1;
#X obj 308 661 t b f;
#X obj 312 397 r oct;
#X obj 39 87 s decay1;
#X obj 32 151 s oVol;
#X obj 32 211 s pVol;
#X obj 183 67 vsl 15 128 0 1 0 0 volu1 reverbVol empty 0 -9 0 10 #fcfcfc
#000000 #000000 7620 1;
#X obj 208 97 vsl 15 128 0 127 0 0 par11 reverbPar1 empty 0 -9 0 10
#fcfcfc #000000 #000000 5100 1;
#X obj 237 129 vsl 15 128 0 127 0 0 par21 reverbPar2 empty 0 -9 0 10
#fcfcfc #000000 #000000 12100 1;
#X text 198 67 VOLUME;
#X text 223 97 PARAM 1;
#X text 252 129 PARAM2;
#X obj 32 640 catch~ delay;
#X obj 29 607 throw~ output13;
#X obj 29 548 lop~ 8000;
#X obj 470 662 + 500;
#X msg 213 467 0.8;
#X msg 275 437 0;
#X obj 213 496 s masterVol;
#N canvas 1063 425 585 425 theOutputs 1;
#X obj 147 367 dac~;
#X obj 165 24 catch~ outVerb;
#X obj 290 256 throw~ delay;
#X obj 175 53 throw~ delay;
#N canvas 647 119 695 685 myVerb 0;
#X obj 105 312 vcf~;
#X obj 148 312 vcf~;
#X obj 171 262 sig~;
#X obj 133 346 hip~;
#X obj 176 346 hip~;
#X obj 133 376 lop~;
#X obj 176 376 lop~;
#X obj 249 202 tgl 15 0 empty empty empty 17 7 0 10 #fcfcfc #000000
#000000 1 1;
#X obj 105 267 *~;
#X obj 135 267 *~;
#X obj 249 173 loadbang;
#X text 429 304 RANDOM DYNAMIC;
#X text 246 146 FILTER FREQ;
#X obj 381 331 s number2;
#X obj 171 234 r number2;
#X obj 249 227 metro 110;
#X obj 399 207 s number6;
#X obj 404 360 r number6;
#X obj 399 179 * 0.78;
#X obj 409 121 * 78;
#X obj 409 149 s number7;
#X obj 248 391 r number7;
#X obj 404 387 + 35;
#X obj 219 421 r number9;
#X obj 219 450 + 70;
#X obj 452 387 r number9;
#X obj 434 414 r number10;
#X obj 434 443 /;
#X obj 251 358 + 1;
#X obj 269 332 r number10;
#X obj 413 271 r number8;
#X text 454 59 REVERB PARAMETERS;
#X obj 251 307 r number2;
#X text 226 605 OUTPUT REVERB EFFECT;
#X obj 229 561 outlet~;
#X obj 364 555 outlet~;
#X obj 105 170 inlet~;
#X obj 133 479 rev3~ 100 175 3000 20;
#X obj 314 469 rev3~ 100 90 2750 37.5;
#X obj 404 444 +;
#X obj 381 296 * 170;
#X obj 381 270 / 6;
#X obj 309 202 r number8;
#X text 81 143 AUDIO INPUT;
#X obj 249 255 random 60;
#X obj 229 528 *~ 8;
#X obj 364 523 *~ 8;
#X obj 30 170 r volu1;
#X obj 399 59 r par11;
#X obj 381 241 r par21;
#X obj 540 296 s number8;
#X obj 563 239 s number9;
#X obj 586 184 s number10;
#X obj 540 268 random 200;
#X obj 586 157 random 15000;
#X obj 563 212 random 50;
#X obj 540 130 t b b b;
#X obj 399 88 t f f b, f 8;
#X connect 0 1 3 0;
#X connect 1 1 4 0;
#X connect 2 0 0 1;
#X connect 2 0 1 1;
#X connect 3 0 5 0;
#X connect 4 0 6 0;
#X connect 5 0 37 0;
#X connect 6 0 38 0;
#X connect 7 0 15 0;
#X connect 8 0 0 0;
#X connect 9 0 1 0;
#X connect 10 0 7 0;
#X connect 14 0 2 0;
#X connect 15 0 44 0;
#X connect 17 0 22 0;
#X connect 17 0 37 5;
#X connect 18 0 16 0;
#X connect 19 0 20 0;
#X connect 21 0 37 4;
#X connect 22 0 39 0;
#X connect 23 0 24 0;
#X connect 24 0 37 3;
#X connect 25 0 39 1;
#X connect 25 0 27 1;
#X connect 26 0 27 0;
#X connect 27 0 38 4;
#X connect 28 0 4 1;
#X connect 28 0 3 1;
#X connect 29 0 28 1;
#X connect 29 0 6 1;
#X connect 29 0 5 1;
#X connect 30 0 40 1;
#X connect 32 0 28 0;
#X connect 36 0 8 0;
#X connect 36 0 9 0;
#X connect 37 0 46 0;
#X connect 37 2 45 0;
#X connect 38 1 46 0;
#X connect 38 3 45 0;
#X connect 39 0 38 3;
#X connect 40 0 13 0;
#X connect 41 0 40 0;
#X connect 42 0 15 1;
#X connect 44 0 1 2;
#X connect 44 0 0 2;
#X connect 45 0 34 0;
#X connect 46 0 35 0;
#X connect 47 0 8 1;
#X connect 47 0 9 1;
#X connect 48 0 57 0;
#X connect 49 0 41 0;
#X connect 53 0 50 0;
#X connect 54 0 52 0;
#X connect 55 0 51 0;
#X connect 56 0 53 0;
#X connect 56 1 55 0;
#X connect 56 2 54 0;
#X connect 57 0 18 0;
#X connect 57 1 19 0;
#X connect 57 2 56 0;
#X restore 275 288 pd myVerb;
#X obj 210 248 +~;
#X obj 165 268 +~;
#X obj 275 317 +~;
#X obj 210 122 spigot~;
#X obj 210 81 catch~ output10;
#X obj 272 107 tgl 15 0 empty muteSynth empty 17 7 0 10 #fcfcfc #000000
#000000 0 1;
#X obj 275 226 spigot~;
#X obj 275 183 catch~ output11;
#X obj 341 211 tgl 15 0 empty muteHarp empty 17 7 0 10 #fcfcfc #000000
#000000 0 1;
#X obj 220 151 throw~ delay;
#X obj 43 27 catch~ output13;
#X obj 53 56 throw~ delay;
#X obj 147 307 +~;
#X obj 275 346 throw~ outVerb;
#X obj 43 102 spigot~;
#X obj 105 87 tgl 15 0 empty muteDelay empty 17 7 0 10 #fcfcfc #000000
#000000 0 1;
#X obj 186 312 r masterVol;
#X obj 147 338 *~ 0.9;
#X connect 1 0 3 0;
#X connect 1 0 6 0;
#X connect 4 0 7 0;
#X connect 4 1 7 1;
#X connect 5 0 6 1;
#X connect 6 0 17 1;
#X connect 7 0 18 0;
#X connect 8 0 5 0;
#X connect 8 0 14 0;
#X connect 9 0 8 0;
#X connect 10 0 8 1;
#X connect 11 0 2 0;
#X connect 11 0 4 0;
#X connect 11 0 5 1;
#X connect 12 0 11 0;
#X connect 13 0 11 1;
#X connect 15 0 16 0;
#X connect 15 0 19 0;
#X connect 17 0 22 0;
#X connect 19 0 17 0;
#X connect 20 0 19 1;
#X connect 21 0 22 1;
#X connect 22 0 0 0;
#X connect 22 0 0 1;
#X restore 704 112 pd theOutputs;
#N canvas 513 466 862 667 chordSelector 0;
#X obj 48 50 inlet;
#X obj 168 121 inlet;
#X text 48 317 C 6 maj7 + 9;
#X msg 48 348 48 52 55 57 59 62;
#X obj 48 106 f;
#X obj 88 106 + 1;
#X obj 48 164 t f b;
#X obj 80 191 s oct;
#X obj 48 77 metro 60000;
#X obj 48 135 % 2;
#X obj 48 222 sel 0 1;
#X obj 168 176 f;
#X obj 208 176 + 1;
#X obj 168 234 t f b;
#X obj 200 261 s oct;
#X obj 168 147 metro 60000;
#X obj 168 205 % 2;
#X obj 168 292 sel 0 1;
#X text 280 474 E min7 add9;
#X msg 280 505 52 55 59 60 62 66;
#X obj 48 547 outlet;
#X obj 318 61 inlet;
#X obj 318 116 f;
#X obj 358 116 + 1;
#X obj 318 174 t f b;
#X obj 350 201 s oct;
#X obj 318 87 metro 60000;
#X obj 318 145 % 2;
#X obj 318 232 sel 0 1;
#X text 318 317 Eb 6 maj7 + 9;
#X text 438 409 C min7 6 9;
#X msg 318 348 51 55 58 60 62 65;
#X msg 438 440 60 63 67 69 70 74;
#X msg 168 440 57 60 64 67 71;
#X text 168 409 A min7 9;
#X connect 0 0 8 0;
#X connect 1 0 15 0;
#X connect 3 0 20 0;
#X connect 4 0 5 0;
#X connect 4 0 9 0;
#X connect 5 0 4 1;
#X connect 6 0 10 0;
#X connect 6 1 7 0;
#X connect 8 0 4 0;
#X connect 9 0 6 0;
#X connect 10 0 3 0;
#X connect 10 1 33 0;
#X connect 11 0 12 0;
#X connect 11 0 16 0;
#X connect 12 0 11 1;
#X connect 13 0 17 0;
#X connect 13 1 14 0;
#X connect 15 0 11 0;
#X connect 16 0 13 0;
#X connect 17 0 33 0;
#X connect 17 1 19 0;
#X connect 19 0 20 0;
#X connect 21 0 26 0;
#X connect 22 0 23 0;
#X connect 22 0 27 0;
#X connect 23 0 22 1;
#X connect 24 0 28 0;
#X connect 24 1 25 0;
#X connect 26 0 22 0;
#X connect 27 0 24 0;
#X connect 28 0 31 0;
#X connect 28 1 32 0;
#X connect 31 0 20 0;
#X connect 32 0 20 0;
#X connect 33 0 20 0;
#X restore 512 190 pd chordSelector;
#N canvas 282 87 651 396 sendTheNotes 0;
#X obj 71 223 s first3;
#X obj 121 195 s third3;
#X obj 171 166 s fifth3;
#X obj 350 269 s first2;
#X obj 535 218 s second2;
#X obj 368 238 s third2;
#X obj 383 204 s fifth2;
#X obj 485 252 s sixth2;
#X obj 395 172 s seventh2;
#X text 380 315 Notes for the Chimes;
#X text 53 261 Notes for the Oscillators;
#X obj 181 61 unpack f f f f f f;
#X obj 71 110 t f f;
#X obj 71 139 - 12;
#X obj 121 110 t f f;
#X obj 121 139 - 12;
#X obj 171 110 t f f;
#X obj 171 139 - 12;
#X obj 485 160 t f f;
#X obj 535 160 t f f;
#X obj 485 189 + 12;
#X obj 535 189 + 12;
#X obj 181 31 inlet;
#X connect 11 0 12 0;
#X connect 11 1 14 0;
#X connect 11 2 16 0;
#X connect 11 3 18 0;
#X connect 11 4 8 0;
#X connect 11 5 19 0;
#X connect 12 0 13 0;
#X connect 12 1 3 0;
#X connect 13 0 0 0;
#X connect 14 0 15 0;
#X connect 14 1 5 0;
#X connect 15 0 1 0;
#X connect 16 0 17 0;
#X connect 16 1 6 0;
#X connect 17 0 2 0;
#X connect 18 0 20 0;
#X connect 19 0 21 0;
#X connect 20 0 7 0;
#X connect 21 0 4 0;
#X connect 22 0 11 0;
#X restore 512 219 pd sendTheNotes;
#X text 40 21 SYNTH PARAMS;
#X text 183 17 REVERB CONTROLS;
#X text 319 329 START IT ALL;
#X obj 512 37 tgl 15 0 empty do-la empty 17 7 0 10 #fcfcfc #000000
#000000 1 1;
#X obj 618 27 tgl 15 0 empty la-mi empty 17 7 0 10 #fcfcfc #000000
#000000 0 1;
#X obj 894 126 tgl 25 0 startItAll empty empty 17 7 0 10 #fcfcfc #000000
#000000 1 1;
#X text 919 131 START ME;
#X obj 938 721 tgl 25 0 muteSynth empty empty 17 7 0 10 #fcfcfc #000000
#000000 0 1;
#X obj 1028 721 tgl 25 0 muteHarp empty empty 17 7 0 10 #fcfcfc #000000
#000000 0 1;
#X obj 1108 721 tgl 25 0 muteDelay empty empty 17 7 0 10 #fcfcfc #000000
#000000 0 1;
#X text 963 726 SYNTH;
#X text 1053 726 HARP;
#X text 1133 726 DELAY;
#X obj 1149 305 vsl 15 128 100 15000 0 0 moveThePlucks empty empty
0 -9 0 10 #fcfcfc #000000 #000000 5881 1;
#X obj 1078 305 vsl 15 128 100 15000 0 0 moveTheWaves empty empty 0
-9 0 10 #fcfcfc #000000 #000000 6734 1;
#X obj 902 308 hsl 128 15 100 5000 0 0 synthDecay empty empty -2 -8
0 10 #fcfcfc #000000 #000000 6652 1;
#X obj 902 361 hsl 128 15 0 1 0 0 sineWaveVol empty empty -2 -8 0 10
#fcfcfc #000000 #000000 7620 1;
#X obj 903 416 hsl 128 15 0 1 0 0 squareWaveVol empty empty -2 -8 0
10 #fcfcfc #000000 #000000 0 1;
#X text 904 389 SQUARE WAVE VOL;
#X text 907 333 SINE WAVE VOL;
#X text 906 280 SYNTH DECAY;
#X text 1172 346 HARP;
#X text 1101 345 SYNTH;
#X text 1085 271 REPEATS TIME;
#X obj 989 658 hsl 128 15 500 3000 0 0 delayTime empty empty -2 -8
0 10 #fcfcfc #000000 #000000 10160 1;
#X obj 931 479 vsl 15 128 0 1 0 0 reverbVol empty empty 0 -9 0 10 #fcfcfc
#000000 #000000 7620 1;
#X obj 1030 480 vsl 15 128 0 127 0 0 reverbPar1 empty empty 0 -9 0
10 #fcfcfc #000000 #000000 5100 1;
#X obj 1125 481 vsl 15 128 0 127 0 0 reverbPar2 empty empty 0 -9 0
10 #fcfcfc #000000 #000000 12100 1;
#X text 952 529 VOLUME;
#X text 1051 530 PARAM 1;
#X text 1146 531 PARAM2;
#X obj 1184 126 tgl 25 0 randomizeItAll empty empty 17 7 0 10 #fcfcfc
#000000 #000000 1 1;
#X text 1040 131 RANDOMIZE ALL ON/OFF;
#X obj 901 198 tgl 25 0 do-la off1 empty 17 7 0 10 #fcfcfc #000000
#000000 1 1;
#X obj 1021 198 tgl 25 0 la-mi off2 empty 17 7 0 10 #fcfcfc #000000
#000000 0 1;
#X text 1046 203 Am-Em;
#X obj 780 157 loadbang;
#X obj 817 306 loadbang;
#X msg 837 345 0.6;
#X obj 304 353 t f b;
#X obj 213 408 sel 1;
#X obj 641 175 tgl 15 0 empty mib-do empty 17 7 0 10 #fcfcfc #000000
#000000 0 1;
#X obj 1111 198 tgl 25 0 mib-do off3 empty 17 7 0 10 #fcfcfc #000000
#000000 0 1;
#X text 926 203 Cmaj-Am;
#X text 1136 203 Ebmaj-Cm;
#X obj 522 61 sel 1;
#X msg 522 90 0;
#X obj 618 53 sel 1;
#X msg 618 82 0;
#X obj 618 141 s off1;
#X obj 628 111 s off3;
#X obj 532 119 s off3;
#X obj 522 149 s off2;
#X obj 643 201 sel 1;
#X msg 643 230 0;
#X obj 643 289 s off2;
#X obj 653 259 s off1;
#X text 1003 166 CHANGE CHORDS;
#X text 1026 449 REVERB;
#X text 1013 625 DELAY TIME;
#X text 1032 685 MUTE;
#X obj 780 216 + 1000;
#X msg 780 187 7000;
#X obj 780 266 / 3;
#X msg 817 421 2500;
#X obj 757 479 loadbang;
#X obj 757 538 t b b b;
#X obj 780 597 random 127;
#X obj 803 637 random 127;
#X msg 756 570 0.6;
#X obj 500 486 t f f f b;
#X obj 560 511 s rv;
#X obj 767 506 r rv;
#X obj 39 62 r synthDecay;
#X obj 32 123 r sineWaveVol;
#X obj 32 182 r squareWaveVol;
#X obj 67 353 r delayTime;
#X text 96 549 Lowpass;
#X text 92 667 Highpass;
#X text 139 607 Fb;
#X text 349 174 convert osc to ctl;
#X text 342 258 Send to the oscs;
#X text 395 66 Sampl rate;
#X text 527 35 Cmaj7 - Am;
#X text 633 25 Em - Am;
#X text 656 173 Ebmaj7 - Cm;
#X text 997 241 SOUNDS CONTROLS;
#X connect 24 0 22 0;
#X connect 24 1 23 0;
#X connect 25 0 79 0;
#X connect 26 0 27 0;
#X connect 27 0 25 0;
#X connect 30 0 33 0;
#X connect 31 0 126 0;
#X connect 34 0 35 0;
#X connect 35 0 36 0;
#X connect 36 0 37 0;
#X connect 39 0 34 0;
#X connect 41 0 43 0;
#X connect 42 0 47 0;
#X connect 43 0 52 0;
#X connect 43 0 61 0;
#X connect 44 0 49 0;
#X connect 45 0 157 0;
#X connect 46 0 48 0;
#X connect 47 0 46 0;
#X connect 47 1 41 0;
#X connect 47 2 44 0;
#X connect 48 0 24 0;
#X connect 49 0 45 0;
#X connect 51 0 61 0;
#X connect 51 0 62 0;
#X connect 52 0 62 0;
#X connect 53 0 35 0;
#X connect 54 0 55 0;
#X connect 55 0 56 0;
#X connect 56 0 57 0;
#X connect 58 0 53 1;
#X connect 60 0 50 0;
#X connect 61 0 60 0;
#X connect 62 0 80 0;
#X connect 63 0 64 0;
#X connect 64 0 62 0;
#X connect 64 1 62 1;
#X connect 65 0 66 0;
#X connect 66 0 61 0;
#X connect 66 1 61 1;
#X connect 67 0 48 0;
#X connect 77 0 30 0;
#X connect 79 0 78 0;
#X connect 80 0 21 0;
#X connect 81 0 83 0;
#X connect 82 0 83 0;
#X connect 85 0 86 0;
#X connect 90 0 85 0;
#X connect 90 0 132 0;
#X connect 91 0 85 1;
#X connect 91 0 134 0;
#X connect 123 0 118 0;
#X connect 123 0 120 0;
#X connect 123 0 149 0;
#X connect 124 0 125 0;
#X connect 124 0 151 0;
#X connect 125 0 103 0;
#X connect 126 0 127 0;
#X connect 126 1 32 0;
#X connect 126 1 48 0;
#X connect 127 0 81 0;
#X connect 127 1 82 0;
#X connect 128 0 85 2;
#X connect 128 0 140 0;
#X connect 132 0 133 0;
#X connect 133 0 138 0;
#X connect 133 0 139 0;
#X connect 134 0 135 0;
#X connect 135 0 136 0;
#X connect 135 0 137 0;
#X connect 140 0 141 0;
#X connect 141 0 142 0;
#X connect 141 0 143 0;
#X connect 148 0 101 0;
#X connect 148 0 150 0;
#X connect 149 0 100 0;
#X connect 149 0 148 0;
#X connect 150 0 102 0;
#X connect 151 0 111 0;
#X connect 152 0 153 0;
#X connect 153 0 156 0;
#X connect 153 1 154 0;
#X connect 153 2 155 0;
#X connect 154 0 113 0;
#X connect 155 0 114 0;
#X connect 156 0 112 0;
#X connect 157 0 46 1;
#X connect 157 1 41 1;
#X connect 157 2 44 1;
#X connect 157 3 158 0;
#X connect 159 0 153 0;
#X connect 160 0 68 0;
#X connect 161 0 69 0;
#X connect 162 0 70 0;
#X connect 163 0 54 0;
#X connect 163 0 26 0;
#X coords 0 -1 1 1 340 650 1 882 115;
